<?xml version="1.0" encoding="UTF-8"?>
<svg id="uuid-9b918b20-b3cb-482a-a6d4-86a54f8e28fb" data-name="Layer 1" xmlns="http://www.w3.org/2000/svg" viewBox="0 0 51.9 59">
  <defs>
    <style>
      .uuid-1a2540d9-8170-4082-b26e-f10ff14ef109 {
        fill: #b457db;
      }

      .uuid-fd1f5a00-8c12-4bb1-b2c4-1c31cdd431ba {
        fill: #afff33;
      }

      .uuid-7eeb7f00-2d84-4640-b7ba-20e70f09b900 {
        fill: #7d3c98;
      }
    </style>
  </defs>
  <path class="uuid-1a2540d9-8170-4082-b26e-f10ff14ef109" d="M25.95,5.29L4.73,14.67v9.14s.19,2.97.19,2.97c.44,5.68,1.91,11.36,4.98,16.15,3.66,5.7,9.31,9.73,15.96,11.08.03,0,.06-.01.09-.02v5.01c-1.48-.18-2.78-.55-4.2-1.02-5.81-1.94-10.85-5.63-14.5-10.57-2.63-3.55-4.41-7.55-5.57-11.81C.62,31.67.18,27.73.03,23.65l-.03-12.15L25.95.01v5.28Z"/>
  <path class="uuid-7eeb7f00-2d84-4640-b7ba-20e70f09b900" d="M25.97,5.28h-.02S25.95.01,25.95.01h.02s17.17,7.6,17.17,7.6l-3.77,3.62-13.4-5.95ZM47.16,19.23l-.07,6.08-.08,1.19c-.31,4.92-1.51,9.91-3.72,14.22-2.64,5.14-6.83,9.25-12.1,11.63-1.71.78-3.4,1.34-5.24,1.64v5.01h.01c1.56-.2,2.98-.59,4.47-1.1,7.09-2.44,12.87-7.43,16.5-13.99,3.39-6.11,4.69-12.97,4.96-19.92v-12.13s-4.73,7.37-4.73,7.37Z"/>
  <path class="uuid-fd1f5a00-8c12-4bb1-b2c4-1c31cdd431ba" d="M24.86,28.82c.25.13.64.34.82.17l2.35-2.29,2.17-2.03,4.23-4.01,2.87-2.77,2.39-2.26,2.75-2.65,1.03-.91c.39-.34.69-.7,1.07-1.07l2.41-2.31,1.92-1.81c.39-.37.93-.37,1.27-.06.39.36.4.8.07,1.31l-20.63,32.08c-.42.65-.7,1.2-1.29,1.71-.83.72-1.9.97-3.07.73-.93-.19-1.63-.93-2.27-1.8l-4.25-5.78-.65-.85-8.08-10.88c-.29-.39-.48-.73-.32-1.17.11-.3.59-.74,1-.54l5.05,2.53,9.15,4.67Z"/>
</svg>