<?xml version="1.0" encoding="UTF-8"?>
<svg id="uuid-c374d26a-c3ba-495c-bbd3-5ac2de22e13a" data-name="Camada 1" xmlns="http://www.w3.org/2000/svg" viewBox="0 0 1008.08 1052.03">
  <defs>
    <style>
      .uuid-20594546-62e5-440b-bd92-14b3e8bc8a04 {
        fill: #afff33;
      }

      .uuid-72b114a9-7e0b-484a-a638-de1a2fd40a43 {
        fill: #7d3c98;
      }
    </style>
  </defs>
  <path class="uuid-20594546-62e5-440b-bd92-14b3e8bc8a04" d="M993.18,781.9l-453.03,261.53c-19.85,11.46-52.37,11.46-72.22,0L14.9,781.9c-19.85-11.46-19.85-30.22,0-41.69l144.65-83.53,308.38,178c19.85,11.46,52.37,11.46,72.22,0l308.32-178,144.7,83.53c19.85,11.46,19.85,30.22,0,41.69Z"/>
  <path class="uuid-72b114a9-7e0b-484a-a638-de1a2fd40a43" d="M993.18,546.9l-453.03,261.53c-19.85,11.46-52.37,11.46-72.22,0L14.9,546.9c-19.85-11.46-19.85-30.22,0-41.69l144.7-83.53,308.32,178c19.85,11.46,52.37,11.46,72.22,0l308.32-178.05,144.7,83.58c19.85,11.46,19.85,30.22,0,41.69Z"/>
  <path class="uuid-20594546-62e5-440b-bd92-14b3e8bc8a04" d="M14.89,270.16c-19.86,11.46-19.86,30.22,0,41.69l453.05,261.57c19.86,11.46,52.35,11.46,72.2,0l453.05-261.57c19.86-11.46,19.86-30.22,0-41.69L540.14,8.6c-19.86-11.46-52.35-11.46-72.2,0L14.89,270.16Z"/>
</svg>