<?xml version="1.0" encoding="UTF-8"?>
<svg id="uuid-502b9764-f9b5-4c2c-ba12-65e744cf3f6e" data-name="Layer 1" xmlns="http://www.w3.org/2000/svg" viewBox="0 0 1018.97 1059">
  <path d="M999.1,785.43l-453.03,261.53c-19.85,11.46-52.37,11.46-72.22,0L20.82,785.43c-19.85-11.46-19.85-30.22,0-41.69l144.65-83.53,308.38,178c19.85,11.46,52.37,11.46,72.22,0l308.32-178,144.7,83.53c19.85,11.46,19.85,30.22,0,41.69Z" fill="#afff33"/>
  <path d="M999.1,550.42l-453.03,261.53c-19.85,11.46-52.37,11.46-72.22,0L20.82,550.42c-19.85-11.46-19.85-30.22,0-41.69l144.7-83.53,308.32,178c19.85,11.46,52.37,11.46,72.22,0l308.32-178.05,144.7,83.58c19.85,11.46,19.85,30.22,0,41.69Z" fill="#7d3c98"/>
  <path d="M20.81,273.69c-19.86,11.46-19.86,30.22,0,41.69l453.05,261.57c19.86,11.46,52.35,11.46,72.2,0l453.05-261.57c19.86-11.46,19.86-30.22,0-41.69L546.06,12.12c-19.86-11.46-52.35-11.46-72.2,0L20.81,273.69Z" fill="#afff33"/>
</svg>